/* XPM */
static char *_2dec61354ba498ff31a45ba94c9eb75[] = {
/* columns rows colors chars-per-pixel */
"16 16 14 1 ",
"  c #005193",
". c #105C9A",
"X c #2067A1",
"o c #3072A7",
"O c #407DAE",
"+ c #6093BC",
"@ c #709DC2",
"# c #80A8C9",
"$ c #A0BED7",
"% c #B0C9DE",
"& c #C0D4E4",
"* c #D0DFEB",
"= c #E0EAF2",
"- c gray100",
/* pixels */
"                ",
"                ",
"     .#**#.     ",
"     %----%     ",
"    X------X    ",
"    O------O    ",
"    O------O    ",
"    O-#=---O    ",
"    o-o&=$-O    ",
"     oO&&o-o    ",
"     #&&&+O     ",
"     #&@+&#     ",
"     @%##&#     ",
"       @@       ",
"                ",
"                "
};
