/* XPM */
static char *_cad668b03a840ebdf610243c30aaab5[] = {
/* columns rows colors chars-per-pixel */
"128 128 18 1 ",
"  c #005193",
". c #105C9A",
"X c #2067A1",
"o c #3072A7",
"O c #407DAE",
"+ c #5088B5",
"@ c #6093BC",
"# c #709DC2",
"$ c #80A8C9",
"% c #90B3D0",
"& c #A0BED7",
"* c #B0C9DE",
"= c #C0D4E4",
"- c #D0DFEB",
"; c #E0EAF2",
": c #F0F5F9",
"> c gray100",
", c None",
/* pixels */
",,,,,,,,,,,,,,,,,,,,,,,,,,,,,,,,,,,,,,,,,,,,,,,,,,,,,,,,,,,,,,,,,,,,,,,,,,,,,,,,,,,,,,,,,,,,,,,,,,,,,,,,,,,,,,,,,,,,,,,,,,,,,,,,",
",,,,,,,,,,,,,,,,,,,,,,,,,,,,,,,,,,,,,,,,,,,,,,,,,,,,,,,,,,,,,,,,,,,,,,,,,,,,,,,,,,,,,,,,,,,,,,,,,,,,,,,,,,,,,,,,,,,,,,,,,,,,,,,,",
",,,,,,,,,,,,,,                                                                                                    ,,,,,,,,,,,,,,",
",,,,,,,,,,,                                                                                                          ,,,,,,,,,,,",
",,,,,,,,                                                                                                                ,,,,,,,,",
",,,,,,,                                                                                                                  ,,,,,,,",
",,,,,,                                                                                                                    ,,,,,,",
",,,,,                                                                                                                      ,,,,,",
",,,,                                                                                                                        ,,,,",
",,,,                                                                                                                        ,,,,",
",,,,                                                                                                                        ,,,,",
",,,                                                                                                                          ,,,",
",,,                                                                                                                          ,,,",
",,,                                                                                                                          ,,,",
",,                                                                                                                            ,,",
",,                                                                                                                            ,,",
",,                                                                                                                            ,,",
",,                                                                                                                            ,,",
",,                                                                                                                            ,,",
",,                                                                                                                            ,,",
",,                                                          XOOOOOOo                                                          ,,",
",,                                                      O%=>>>>>>>>>>=%+                                                      ,,",
",,                                                   X$;>>>>>>>>>>>>>>>>:$X                                                   ,,",
",,                                                 .&>>>>>>>>>>>>>>>>>>>>>>%.                                                 ,,",
",,                                                #:>>>>>>>>>>>>>>>>>>>>>>>>:+                                                ,,",
",,                                              .*>>>>>>>>>>>>>>>>>>>>>>>>>>>>&                                               ,,",
",,                                             o->>>>>>>>>>>>>>>>>>>>>>>>>>>>>>-.                                             ,,",
",,                                            o:>>>>>>>>>>>>>>>>>>>>>>>>>>>>>>>>-.                                            ,,",
",,                                           .:>>>>>>>>>>>>>>>>>>>>>>>>>>>>>>>>>>*                                            ,,",
",,                                           ->>>>>>>>>>>>>>>>>>>>>>>>>>>>>>>>>>>>$                                           ,,",
",,                                          %>>>>>>>>>>>>>>>>>>>>>>>>>>>>>>>>>>>>>>O                                          ,,",
",,                                         O>>>>>>>>>>>>>>>>>>>>>>>>>>>>>>>>>>>>>>>;                                          ,,",
",,                                         ->>>>>>>>>>>>>>>>>>>>>>>>>>>>>>>>>>>>>>>>$                                         ,,",
",,                                        @>>>>>>>>>>>>>>>>>>>>>>>>>>>>>>>>>>>>>>>>>:.                                        ,,",
",,                                        ;>>>>>>>>>>>>>>>>>>>>>>>>>>>>>>>>>>>>>>>>>>$                                        ,,",
",,                                       o>>>>>>>>>>>>>>>>>>>>>>>>>>>>>>>>>>>>>>>>>>>;                                        ,,",
",,                                       &>>>>>>>>>>>>>>>>>>>>>>>>>>>>>>>>>>>>>>>>>>>>+                                       ,,",
",,                                       :>>>>>>>>>>>>>>>>>>>>>>>>>>>>>>>>>>>>>>>>>>>>&                                       ,,",
",,                                      o>>>>>>>>>>>>>>>>>>>>>>>>>>>>>>>>>>>>>>>>>>>>>:                                       ,,",
",,                                      #>>>>>>>>>>>>>>>>>>>>>>>>>>>>>>>>>>>>>>>>>>>>>>O                                      ,,",
",,                                      %>>>>>>>>>>>>>>>>>>>>>>>>>>>>>>>>>>>>>>>>>>>>>>$                                      ,,",
",,                                      =>>>>>>>>>>>>>>>>>>>>>>>>>>>>>>>>>>>>>>>>>>>>>>=                                      ,,",
",,                                      =>>>>>>>>>>>>>>>>>>>>>>>>>>>>>>>>>>>>>>>>>>>>>>=                                      ,,",
",,                                      =>>>>>>>>>>>>>>>>>>>>>>>>>>>>>>>>>>>>>>>>>>>>>>=                                      ,,",
",,                                      =>>>>>>>>>>>>>>>>>>>>>>>>>>>>>>>>>>>>>>>>>>>>>>=                                      ,,",
",,                                      =>>>>>>>>>>>>>>>>>>>>>>>>>>>>>>>>>>>>>>>>>>>>>>=                                      ,,",
",,                                      =>>>>>>>>>>>>>>>>>>>>>>>>>>>>>>>>>>>>>>>>>>>>>>=                                      ,,",
",,                                      =>>>>>>>>>>>>>>>>>>>>>>>>>>>>>>>>>>>>>>>>>>>>>>=                                      ,,",
",,                                      =>>>>>>>>>>>>>>>>>>>>>>>>>>>>>>>>>>>>>>>>>>>>>>=                                      ,,",
",,                                      =>>>>>>>>>>>>>>>>>>>>>>>>>>>>>>>>>>>>>>>>>>>>>>=                                      ,,",
",,                                      =>>>>>>>>>>>>>>>>>>>>>>>>>>>>>>>>>>>>>>>>>>>>>>=                                      ,,",
",,                                      =>>>>>>>>>>>>>>>>>>>>>>>>>>>>>>>>>>>>>>>>>>>>>>=                                      ,,",
",,                                      =>>>>>>>>>>>>>>>>>>>>>>>>>>>>>>>>>>>>>>>>>>>>>>=                                      ,,",
",,                                      =>>>>>>>>>>>>>>>>>>>>>>>>>>>>>>>>>>>>>>>>>>>>>>=                                      ,,",
",,                                      =>>>>>>>>>>>>>>>>>>>>>>>>>>>>>>>>>>>>>>>>>>>>>>=                                      ,,",
",,                                      =>>>>>>>>>>>>>>>>>>>>>>>>>>>>>>>>>>>>>>>>>>>>>>=                                      ,,",
",,                                      =>>>>>>>>>>>>>>>>>>>>>>>>>>>>>>>>>>>>>>>>>>>>>>=                                      ,,",
",,                                      =>>>>>>>>>>>:&$=:>>>>>>>>>>>>>>>>>>>>>>>>>>>>>>=                                      ,,",
",,                                      =>>>>>>>>>>&.   .*>>>>>>>>>>>>>>>>>>>>>>>>>>>>>=                                      ,,",
",,                                      =>>>>>>>>>&       =>>>>>>>>>>>>>>>>>>>>>>>>>>>>=                                      ,,",
",,                                      =>>>>>>>>=        X:>>>>>>>>>>>>>>>>>>>>>>>>>>>=                                      ,,",
",,                                      =>>>>>>>>#         =>>>>>>>>>>>>>>>>>>>>>>>>>>>=                                      ,,",
",,                                      =>>>>>>>>O         =>>>>>>>>>>>>>>>>>>>>>>>>>>>=                                      ,,",
",,                                      =>>>>>>>>O         =>>>>>>>>>>>>>>>>>>>>>>>>>>>=                                      ,,",
",,                                      =>>>>>>>>O         =>>>>>>>>>>>>>>>>>>>>>>>>>>>=                                      ,,",
",,                                      =>>>>>>>>O         =>>>>>>>>>>>>>>>>>>>>>>>>>>>=                                      ,,",
",,                                      =>>>>>>>>O         =>>>>>>>>>>>>>:>>>>>>>>>>>>>=                                      ,,",
",,                                      =>>>>>>>>O         =>>>>>>>>>>;@.  o*>>>>>>>>>>=                                      ,,",
",,                                      =>>>>>>>>O         =>>>>>>>>>&.      *>>>>>>>>>=                                      ,,",
",,                                      =>>>>>>>>o         =>>>>>>>>:.       X>>>>>>>>>=                                      ,,",
",,                                      O>>>>>>>*          =>>>>>>>>=         ;>>>>>>>>=                                      ,,",
",,                                       @:>>>>&           =>>>>>>>>=         =>>>>>>>>=                                      ,,",
",,                                        X$=$o            =>>>>>>>>=         =>>>>>>>>=                                      ,,",
",,                                                         =>>>>>>>>=         =>>>>>>>>=                                      ,,",
",,                                                         =>>>>>>>>=         $>>>>>>>>=                                      ,,",
",,                                                         =>>>>>>>>=         $>>>>>>>>=                                      ,,",
",,                                                         =>>>>>>>>=         +>>>>>>>>&                                      ,,",
",,                                                         =>>>>>>>>=          ;>>>>>>:.                                      ,,",
",,                                            X&:>:&X      =>>>>>>>>=          o;>>>>=o                                       ,,",
",,                                           o:>>>>>:o     =>>>>>>>>=            oOOo                                         ,,",
",,                                           *>>>>>>>:     =>>>>>>>>=                                                         ,,",
",,                                           >>>>>>>>>O    =>>>>>>>>=                                                         ,,",
",,                                           >>>>>>>>>O    =>>>>>>>>=                                                         ,,",
",,                                           >>>>>>>>>O    =>>>>>>>>=                                                         ,,",
",,                                           >>>>>>>>>O    =>>>>>>>>=      .$&*$O                                             ,,",
",,                                           >>>>>>>>>O    =>>>>>>>>=     .;>>>>>&                                            ,,",
",,                                           >>>>>>>>>O    =>>>>>>>>=     &>>>>>>>@                                           ,,",
",,                                           >>>>>>>>>O    =>>>>>>>>=    X>>>>>>>>=                                           ,,",
",,                                           >>>>>>>>>O    =>>>>>>>>%    O>>>>>>>>>                                           ,,",
",,                                           >>>>>>>>>O    #>>>>>>>>X    O>>>>>>>>>                                           ,,",
",,                                           >>>>>>>>>O     ->>>>>>@     O>>>>>>>>>                                           ,,",
",,                                           >>>>>>>>>O     .$:>>;+      O>>>>>>>>>                                           ,,",
",,                                           >>>>>>>>>O        XX        O>>>>>>>>>                                           ,,",
",,                                           >>>>>>>>>O                  O>>>>>>>>>                                           ,,",
",,                                           >>>>>>>>>O                  O>>>>>>>>>                                           ,,",
",,                                           >>>>>>>>>O                  O>>>>>>>>>                                           ,,",
",,                                           >>>>>>>>>O                  O>>>>>>>>>                                           ,,",
",,                                           >>>>>>>>>O                  O>>>>>>>>>                                           ,,",
",,                                           >>>>>>>>>o       o@+o       O>>>>>>>>>                                           ,,",
",,                                           :>>>>>>>=      o->>>>=.     O>>>>>>>>=                                           ,,",
",,                                           %>>>>>>:X     .:>>>>>>-.    .:>>>>>>>%                                           ,,",
",,                                            $;>>>;o      %>>>>>>>>#     o:>>>>>:.                                           ,,",
",,                                              OOO        =>>>>>>>>=      X=>>>=o                                            ,,",
",,                                                         =>>>>>>>>=        XOX                                              ,,",
",,                                                         %>>>>>>>>%                                                         ,,",
",,                                                         X>>>>>>>>o                                                         ,,",
",,                                                          @>>>>>>@                                                          ,,",
",,                                                           O*--&O                                                           ,,",
",,                                                                                                                            ,,",
",,                                                                                                                            ,,",
",,                                                                                                                            ,,",
",,                                                                                                                            ,,",
",,                                                                                                                            ,,",
",,                                                                                                                            ,,",
",,,                                                                                                                          ,,,",
",,,                                                                                                                          ,,,",
",,,                                                                                                                          ,,,",
",,,,                                                                                                                        ,,,,",
",,,,                                                                                                                        ,,,,",
",,,,                                                                                                                        ,,,,",
",,,,,                                                                                                                      ,,,,,",
",,,,,,                                                                                                                    ,,,,,,",
",,,,,,,                                                                                                                  ,,,,,,,",
",,,,,,,,                                                                                                                ,,,,,,,,",
",,,,,,,,,,,                                                                                                          ,,,,,,,,,,,",
",,,,,,,,,,,,,,                                                                                                    ,,,,,,,,,,,,,,",
",,,,,,,,,,,,,,,,,,,,,,,,,,,,,,,,,,,,,,,,,,,,,,,,,,,,,,,,,,,,,,,,,,,,,,,,,,,,,,,,,,,,,,,,,,,,,,,,,,,,,,,,,,,,,,,,,,,,,,,,,,,,,,,,",
",,,,,,,,,,,,,,,,,,,,,,,,,,,,,,,,,,,,,,,,,,,,,,,,,,,,,,,,,,,,,,,,,,,,,,,,,,,,,,,,,,,,,,,,,,,,,,,,,,,,,,,,,,,,,,,,,,,,,,,,,,,,,,,,"
};
