/* XPM */
static char *_15bc555c7b941af96905ca1064cbd66[] = {
/* columns rows colors chars-per-pixel */
"32 32 18 1 ",
"  c #005193",
". c #005194",
"X c #105C9A",
"o c #2067A1",
"O c #3072A7",
"+ c #407DAE",
"@ c #5088B5",
"# c #709DC2",
"$ c #80A8C9",
"% c #90B3D0",
"& c #A0BED7",
"* c #B0C9DE",
"= c #C0D4E4",
"- c #D0DFEB",
"; c #E0EAF2",
": c #F0F5F9",
"> c gray100",
", c None",
/* pixels */
", .                            ,",
"                                ",
".                               ",
"                                ",
"             o#%%$o             ",
"           X*>>>>>>%X           ",
"           ->>>>>>>>=           ",
"          $>>>>>>>>>>#          ",
"          :>>>>>>>>>>;          ",
"         +>>>>>>>>>>>>O         ",
"         +>>>>>>>>>>>>+         ",
"         +>>>>>>>>>>>>+         ",
"         +>>>>>>>>>>>>+         ",
"         +>>>>>>>>>>>>+         ",
"         +>>-+=>>>>>>>+         ",
"         +>>+ +>>>>>>>+         ",
"         +>>+ +>>:=:>>+         ",
"         o::o +>>@ $>>+         ",
"              +>>+ +>>+         ",
"           $*O+>>+ o=*X         ",
"           >>$+>>+              ",
"           >>$+>>+@>-           ",
"           >>$O>:o$>>           ",
"           >>$ XX $>>           ",
"           >>$ OO $>>           ",
"           &=OO>>O@:-           ",
"              O>>O              ",
"               OO               ",
"                                ",
"                                ",
"                                ",
",                              ,"
};
