/* XPM */
static char *aa8cf32c4c5040f2ae2eb11ccfd33c72[] = {
/* columns rows colors chars-per-pixel */
"64 64 18 1 ",
"  c #005193",
". c #105C9A",
"X c #2067A1",
"o c #3072A7",
"O c #407DAE",
"+ c #5088B5",
"@ c #6093BC",
"# c #709DC2",
"$ c #80A8C9",
"% c #90B3D0",
"& c #A0BED7",
"* c #B0C9DE",
"= c #C0D4E4",
"- c #D0DFEB",
"; c #E0EAF2",
": c #F0F5F9",
"> c gray100",
", c None",
/* pixels */
",,,,,,,,,,,,,,,,,,,,,,,,,,,,,,,,,,,,,,,,,,,,,,,,,,,,,,,,,,,,,,,,",
",,,,,                                                      ,,,,,",
",,,                                                          ,,,",
",,                                                            ,,",
",,                                                            ,,",
",                                                              ,",
",                                                              ,",
",                                                              ,",
",                                                              ,",
",                            oO##Oo                            ,",
",                         X&:>>>>>>:&X                         ,",
",                       .*>>>>>>>>>>>>&.                       ,",
",                      o:>>>>>>>>>>>>>>-X                      ,",
",                     o:>>>>>>>>>>>>>>>>-.                     ,",
",                    .->>>>>>>>>>>>>>>>>>=                     ,",
",                    $>>>>>>>>>>>>>>>>>>>>@                    ,",
",                   .:>>>>>>>>>>>>>>>>>>>>;                    ,",
",                   #>>>>>>>>>>>>>>>>>>>>>>O                   ,",
",                   *>>>>>>>>>>>>>>>>>>>>>>&                   ,",
",                   >>>>>>>>>>>>>>>>>>>>>>>;                   ,",
",                   >>>>>>>>>>>>>>>>>>>>>>>>                   ,",
",                   >>>>>>>>>>>>>>>>>>>>>>>>                   ,",
",                   >>>>>>>>>>>>>>>>>>>>>>>>                   ,",
",                   >>>>>>>>>>>>>>>>>>>>>>>>                   ,",
",                   >>>>>>>>>>>>>>>>>>>>>>>>                   ,",
",                   >>>>>>>>>>>>>>>>>>>>>>>>                   ,",
",                   >>>>>>>>>>>>>>>>>>>>>>>>                   ,",
",                   >>>>>>>>>>>>>>>>>>>>>>>>                   ,",
",                   >>>>>:$+->>>>>>>>>>>>>>>                   ,",
",                   >>>>:o   ->>>>>>>>>>>>>>                   ,",
",                   >>>>=    $>>>>>>>>>>>>>>                   ,",
",                   >>>>=    $>>>>>>>>>>>>>>                   ,",
",                   >>>>=    $>>>>>>>>>>>>>>                   ,",
",                   >>>>=    $>>>>>$..&>>>>>                   ,",
",                   :>>>$    $>>>>%   .>>>>>                   ,",
",                   o-:%     $>>>>$    :>>>>                   ,",
",                            $>>>>$    =>>>>                   ,",
",                            $>>>>$    =>>>>                   ,",
",                      O$#   $>>>>$    +>>>$                   ,",
",                     +>>>-  $>>>>$     XOX                    ,",
",                     $>>>>o $>>>>$                            ,",
",                     $>>>>O $>>>>$   OO.                      ,",
",                     $>>>>O $>>>>$  &>>:X                     ,",
",                     $>>>>O $>>>># X>>>>%                     ,",
",                     $>>>>O O>>>:X O>>>>=                     ,",
",                     $>>>>O  +**o  O>>>>=                     ,",
",                     $>>>>O        O>>>>*                     ,",
",                     $>>>>O        O>>>>=                     ,",
",                     $>>>>O        O>>>>=                     ,",
",                     $>>>-   =>>&  o>>>>$                     ,",
",                     .&;*o  @>>>>@  %>>:X                     ,",
",                            #>>>>$   oO.                      ,",
",                            X>>>>X                            ,",
",                             o*&o                             ,",
",                                                              ,",
",                                                              ,",
",                                                              ,",
",                                                              ,",
",                                                              ,",
",,                                                            ,,",
",,                                                            ,,",
",,,                                                          ,,,",
",,,,,                                                      ,,,,,",
",,,,,,,,,,,,,,,,,,,,,,,,,,,,,,,,,,,,,,,,,,,,,,,,,,,,,,,,,,,,,,,,"
};
